<svg xmlns="http://www.w3.org/2000/svg" width="100%" viewBox="0 0 1563 1084" height="150" xmlns:v="https://vecta.io/nano"><path fill="#fff" d="M973 1085c-322.833 0-645.167-.007-967.5.093-3.749.001-4.594-.844-4.593-4.593V5.5C.906 1.751 1.751.906 5.5.907h1554c3.749-.001 4.594.844 4.593 4.593v1075c.001 3.749-.844 4.596-4.593 4.594L973 1085z"/><path fill="#ea0c2b" d="M858.063 256.385c2.767.203 3.183-1.495 3.592-3.414 3.351-15.738 12.993-25.072 28.534-29.205l198.908-53.395c7.357-1.99 13.892-1.455 20.572 2.286 12.934 7.244 25.426 15.092 36.842 24.624 2.669-7.13 2.574-7.299-3.327-11.019-9.868-6.22-19.447-12.862-28.466-20.266-10.154-8.336-13.051-19.137-8.438-31.302l14.156-36.74c3.699-9.524 10.512-15.439 20.446-18.057l106.503-28.288c16.438-4.363 31.59 7.221 31.783 24.247.092 8.095.09 8.09 7.863 5.994 8.663-2.336 17.398-4.44 25.965-7.085 4.276-1.32 4.276.268 3.73 3.596-1.052 6.402-1.728 12.865-2.767 19.269-.564 3.474.628 3.984 3.712 3.102 7.349-2.101 14.849-3.712 22.112-6.063 4.324-1.4 4.72-.017 4.199 3.713l-8.439 61.847-14.599 107.861-9.087 67.792c-.387 2.981-1.758 4.199-4.5 4.88-7.904 1.962-15.68 4.517-23.654 6.091-4.687.926-4.332 4.308-4.223 7.048.097 2.429 2.559.933 3.896.579l48.664-12.988 18.343-4.713c4.1-1.127 7.897-.467 11.612 1.313 13.878 6.648 26.744 14.936 38.658 24.618 8.607 6.994 9.515 16.728 8.149 26.879L1393.86 498.92c-2.022 14.055-10.663 23.057-24.328 26.758l-113.2 30.326-90.578 24.19c-16.884 4.498-27.336-.317-34.93-16.045-.511-1.059-.781-2.218-2.325-2.134-7.751.423-13.996-3.158-20.08-8.192l-9.395 69.238c-1.448 10.72-2.565 21.495-4.346 32.159-2.323 13.912-10.266 23.225-24.099 26.95l-202.754 54.483-207.603 55.622c-6.164 1.659-11.66 1.225-17.302-1.739-11.978-6.292-23.301-13.571-33.872-21.979-9.999-7.954-12.798-18.676-8.311-30.808l10.19-27.041c.051-.135-.024-.317-.048-.554-1.458-.892-2.847-.04-4.214.323l-55.394 14.855c-7.434 2.077-14.659 2.754-22.656-.52l1.781 36.186c.529 10.641 1.36 21.277 1.541 31.924.293 17.192-10.397 31.352-26.966 35.849l-92.953 24.964c-7.918 2.152-15.09.807-22.093-3.032-8.497-4.658-16.448-10.142-23.916-16.26-3.792-3.106-4.832-2.084-5.686 2.15-1.049 5.203-2.422 10.367-4.044 15.424-3.726 11.619-11.56 19.512-23.254 22.733l-96.344 25.855c-4.981 1.33-9.727 1.028-14.518-1.348-13.03-6.461-25.254-14.199-36.589-23.236-11.231-8.953-12.652-21.059-8.904-33.954l24.603-82.163c.932-3.053.403-4.223-2.365-5.7-12.227-6.522-23.53-14.491-34.227-23.27-9.026-7.407-11.922-18.163-7.842-29.259l15.238-39.541c3.384-8.361 9.749-13.739 18.505-16.106l44.8-11.946c2.945-.758 4.349-2.123 5.223-5.057L280.9 494.828c.936-3.096.891-5.615-.862-8.411-3.531-5.633-6.759-11.456-10.462-17.8-9.038 10.581-22.076 11.016-33.86 14.311-9.809 2.743-18.514-.212-25.313-7.778-6.848-7.621-8.284-16.749-4.964-26.147 4.76-13.471 10.108-26.741 15.475-39.987 3.175-7.834 9.123-13.091 17.196-15.548 7.146-2.175 14.442-3.857 21.665-5.784 2.451-.654 5.1-1.221 7.399-.434 5.666 1.94 9.903.362 14.006-3.737 2.584-2.581 6.401-3.428 9.95-4.378l129.542-34.82c17.702-4.97 35.019 7.192 33.569 26.04-.474 6.162-.068 6.207 6.107 4.567 6.592-1.75 13.238-3.334 19.739-5.378 3.421-1.076 3.932.007 3.985 3.112.111 6.488.698 12.966.883 19.454.071 2.515.707 3.165 3.24 2.413 6.371-1.893 12.836-3.467 19.23-5.288 2.622-.747 3.698-.512 3.845 2.75l2.942 54.344 6.809-17.559c3.801-10.754 11.038-17.391 22.236-20.072 10.507-2.515 20.837-5.763 31.337-8.31 3.342-.811 3.797-2.208 3.203-5.175-2.075-10.368-2.012-10.41-12.227-7.803-4.848 1.237-9.451 1.05-14.039-1.249-13.75-6.892-26.775-14.961-38.291-25.133-7.858-6.942-9.72-16.379-6.397-26.057 4.798-13.974 10.288-27.722 15.862-41.413 3.903-9.586 11.852-14.32 21.651-16.628 9.378-2.208 9.164-2.346 7.428-11.859-1.576-8.632-4.811-17.045-3.951-26.032 1.157-12.094 8.856-21.846 20.493-25.024L675.248 185.3c6.467-1.716 12.939-1.081 18.856 2.314 2.078 1.192 3.182 1.343 4.674-.972 4.343-6.74 10.734-10.615 18.469-12.663l102.115-27.365c6.723-1.842 12.603-1.292 18.663 2.024 10.387 5.685 20.123 12.337 29.972 18.869 14.758 9.787 15.975 24.104 10.431 37.672l-21.054 49.965c.066.684.238.997.689 1.239z"/><path fill="#ea0f2e" d="M381.48 918.644c7.368-1.927 7.37-1.927 7.371 5.379l-.003 54.984c-.004 4.037-6.976 8.51-10.71 6.941-1.665-.7-1.283-2.176-1.293-3.426l-.021-19.948c-2.624 8.023-2.995 15.088-4.602 21.877-.769 3.248-4.866 6.1-7.98 5.52-2.006-.373-1.937-2.032-2.23-3.431-1.143-5.452-2.236-10.915-4.463-16.252l-.007 16.904c-.02 3.972-6.846 8.682-10.546 7.279-1.563-.593-1.53-2.042-1.531-3.369l-.029-59.483c-.004-2.1.725-3.288 2.77-4.113 11.547-4.664 12.589-4.128 14.895 7.922l3.434 16.583c.05.236.462.396 1.078.891 1.473-8.294 3.436-16.302 4.161-24.42.564-6.312 3.202-9.357 9.706-9.838z"/><path fill="#eb1130" d="M708.443 887.865l-.087-51.459c-.046-4.002 1.024-5.859 5.159-6.858 10.391-2.511 10.322-2.752 12.344 7.707l3.768 19.11c2.335-5.172 2.146-9.673 3.183-13.87.636-2.576.877-5.248 1.306-7.876 1.852-11.337 1.888-11.201 13.23-14.098 3.518-.899 4.555.05 4.531 3.425l-.025 30.988-.011 26.989c-.015 3.703-7.696 8.502-10.922 6.864-1.538-.781-1.071-2.293-1.079-3.543-.045-6.447-.021-12.895-.717-19.46l-4.019 21.351c-.653 3.453-4.582 6.229-7.938 5.656-1.976-.338-1.888-1.922-2.259-3.377-1.575-6.171-1.937-12.647-4.728-19.92l-.02 21.812c-.029 3.044-8.186 7.347-10.712 5.703-1.152-.75-.975-2.023-.996-3.166-.032-1.832-.008-3.665-.008-5.978z"/><path d="M802.253 822.2c.763-4.352 1.562-8.266 2.054-12.219.442-3.551 1.933-5.362 5.709-6.259 10.89-2.587 10.836-2.807 10.836 8.49l-.006 50.934c-.003 4.062-6.778 8.533-10.623 7.082-1.786-.674-1.198-2.186-1.207-3.401-.052-6.653-.025-13.307-.667-20.047-1.363 7.339-3.025 14.638-3.982 22.03-.62 4.787-4.131 4.715-7.205 5.172-3.754.559-2.87-2.87-3.328-4.86-1.182-5.13-2.159-10.308-4.282-15.425l-.006 17.456c-.017 4.196-6.26 8.808-10.267 7.63-1.487-.437-1.437-1.664-1.438-2.818l-.017-60.921c-.002-1.737.726-2.573 2.37-3.266 11.589-4.887 12.642-4.35 14.917 7.706 1.129 5.981 2.452 11.924 4.581 17.858l2.562-15.142zM266.102 967.809l2.785 9.335.937-.094.007-23.897c.011-3.985 7.132-8.666 10.642-6.998 1.479.703 1.372 2.144 1.372 3.472l-.003 58.943c-.007 6.502-5.849 4.676-9.205 6.059-3.584 1.477-3.853-2.073-4.57-4.294-2.129-6.597-4.133-13.234-7.214-19.787l-.002 21.83c-.005 4.794-5.837 9.291-10.378 8.017-1.788-.502-1.474-1.971-1.474-3.26l-.068-59.442c-.018-3.013 1.336-4.04 3.933-4.686 9.604-2.387 8.191-2.962 10.713 5.773l2.527 9.028z" fill="#ea0f2e"/><path fill="#eb1130" d="M903.662 778.748l5.693-1.528c7.447-1.335 13.419 3.112 13.685 10.719.288 8.23 1.551 16.776-4.538 23.877-1.278 1.49-.385 3.155.067 4.744l5.303 18.697c.998 3.326.583 5.519-3.403 5.881-.974.088-1.956.445-2.864.84-3.687 1.604-5.331.362-6.173-3.536-1.409-6.526-3.34-12.939-5.071-19.472-2.3.748-1.757 2.12-1.769 3.134l-.031 15.492c-.004 8.004-.061 7.807-7.537 9.927-3.985 1.131-4.626-.501-4.617-3.842l-.035-57.47c-.025-3.496 1.166-5.261 4.599-5.788 2.126-.326 4.195-1.032 6.691-1.676z"/><path fill="#ea112f" d="M512.469 885.468c2.093-1.963 4.094-3.435 6.428-4.398 11.034-4.551 18.916.702 18.948 12.664l-.015 34.919c-.101 10.95-8.361 19.988-18.522 20.516-6.932.361-11.346-3.166-12.47-10.085-.291-1.792-.378-3.633-.384-5.452l-.039-31.427c-.049-6.231 1.522-11.812 6.053-16.738z"/><path fill="#ea0f2f" d="M1289.599 684.718c2.311 9.39 1.02 18.564 1.168 27.67.106 6.449.816 12.965-.683 19.372-1.905 8.143-8.212 14.098-16.337 15.455-7.54 1.259-12.851-2.21-14.025-9.751-1.361-8.737-.438-17.585-.522-26.382-.055-5.795-.59-11.631.747-17.387 1.962-8.453 9.044-14.938 17.227-15.758 5.526-.554 9.802 1.159 12.425 6.781z"/><path fill="#eb1130" d="M677.132 839.337c4.6-1.725 5.866-.232 5.804 4.184l-.1 45.964c-.048 9.893-5.968 17.888-14.734 20.223-8.528 2.27-15.051-2.317-15.625-11.102-.184-2.819-.04-5.66-.04-8.492l.01-39.47c.007-3.89 7.214-8.623 10.657-6.99 1.815.861 1.033 2.638 1.039 3.999l.041 42.468c0 1.332-.073 2.675.07 3.993.14 1.294.234 2.845 1.876 3.158 1.616.309 2.84-.534 3.787-1.858 1.269-1.775 1.066-3.79 1.067-5.778l-.125-42.465c-.118-4.722 1.126-7.279 6.274-7.834z"/><path fill="#ea0f2f" d="M207.964 1028.733c-1.139 3.125-8.748 7.094-10.978 5.907-2.128-1.133-1.077-3.295-.859-4.933l4.078-28.611 4.557-31.053c.424-3.507 1.969-4.706 5.103-5.519 9.883-2.563 10.001-2.705 11.611 7.047l8.089 50.667c.555 3.36-.869 4.273-3.762 5.038-7.953 2.105-7.807 2.224-8.969-5.885-.258-1.798.865-5.076-2.252-5.09-3.163-.015-6.176 1.129-5.78 5.608.185 2.097-.504 4.27-.837 6.824z"/><path fill="#ea102f" d="M1069.066 754.994c-.757-5.031-1.124-9.711-2.242-14.204-1.114-4.474.331-6.192 4.698-7.128 6.8-1.457 6.642-1.729 7.55 5.15 1.257 9.529 2.677 19.037 4.637 28.514l4.285-33.413c.511-4.078 7.216-8.538 10.947-7.13 2.322.876 1.255 2.85 1.055 4.303l-5.434 37.984c-1.05 7.232-2.409 14.433-3.099 21.698-.373 3.926-2.262 5.32-5.722 6.179-9.433 2.343-9.451 2.458-11.037-7.094l-5.637-34.859z"/><path fill="#eb1533" d="M1122.911 719.95l20.579-5.6c2.959-.84 4.265-.123 4.426 3.182.391 8.027.512 8.021-6.816 9.993-10.371 2.79-10.288 2.785-9.581 13.661.169 2.601.985 3.292 3.321 2.34.307-.125.621-.246.942-.326 9.064-2.259 8.878-2.265 8.524 7.153-.125 3.33-2.138 3.658-4.382 4.3-8.348 2.391-8.346 2.398-8.347 11.069-.001 6.359-.002 6.357 6.329 4.668.643-.172 1.301-.288 1.944-.458 8.27-2.181 8.289-2.107 8.061 6.353-.073 2.702-.814 4.238-3.699 4.933-6.947 1.674-13.821 3.655-20.703 5.586-2.739.768-4.107.066-4.101-2.975l.015-59.971c-.001-2.147.928-3.472 3.488-3.908z"/><path d="M1364.426 716.561c-1.358-1.966-2.177-3.732-2.545-5.758-1.295-7.132 1.604-10.778 8.777-11.063 2.711-.108 2.273 1.7 2.377 3.33.115 1.814.013 4.153 2.363 4.339 2.29.181 4.089-1.278 4.804-3.631 1.09-3.588.804-7.26.333-10.88-.334-2.569-1.947-2.948-4.409-2.336-1.868.464-5.3 2.653-5.41-1.334-.096-3.45-2.792-8.206 2.795-10.34 5.856-2.237 8.556-8.186 6.445-13.983-.391-1.074-1.002-1.84-2.11-1.658-2.145.352-4.124 1.624-4.017 3.805.326 6.603-4.87 6.413-8.899 7.703-2.156.69-2.894-.303-3.143-2.455-1.297-11.228 7.671-21.604 19.007-21.838 6.07-.125 10.718 3.947 11.091 10.459.368 6.431 1.113 13.103-3.215 18.757-1.177 1.538-.241 2.181.629 3.276 9.095 11.444 2.699 32.326-11.172 36.424-4.839 1.43-9.57 1.507-13.702-2.817zM599.32 867.641c2.851-6.857 7.67-10.736 14.539-12.139 8.491-1.734 16.378 6.912 13.892 15.249-.583 1.954-9.019 5.847-10.676 4.889-1.679-.971-.918-2.663-1.089-4.067-.182-1.493-.186-3.255-2.106-3.431-1.847-.169-3.157 1.078-3.717 2.765-1.157 3.482-.352 6.566 2.354 9.076l10.643 9.794c6.085 5.854 6.994 13.016 4.556 20.686-2.469 7.766-7.919 12.628-15.903 14.229-8.787 1.763-16.739-6.745-14.601-15.364.497-2.004 8.598-6.023 10.513-5.183 1.859.816 1.17 2.537 1.275 3.935.126 1.688.069 3.526 2.212 3.921 2.007.37 3.573-.646 4.629-2.297 2.248-3.513 1.338-6.787-1.333-9.495-2.442-2.475-5.201-4.657-7.939-6.819-8.513-6.724-10.603-15.273-7.248-25.749z" fill="#ea102f"/><path fill="#ea0f2f" d="M1321.302 706.316c3.47-7.21 7.55-13.787 9.076-21.375.571-2.84 2.478-7.246-1.827-7.987-4.206-.723-4.856 3.495-5.006 7.027-.162 3.809-6.868 8.201-10.374 6.885-.934-.351-1.22-1.069-1.29-1.919-1.139-13.737 6.661-24.491 19.052-25.046 5.882-.263 9.702 2.618 11.284 8.443 1.932 7.114.207 13.881-2.388 20.443-1.768 4.471-3.94 8.785-6.007 13.133l-6.309 12.863c4.191.491 7.505-1.197 10.875-2.106 3.23-.871 4.588-.493 4.684 3.192.209 8.018.345 8.014-7.431 10.07-6.421 1.698-12.898 3.212-19.24 5.168-3.804 1.173-4.592-.141-4.66-3.66-.08-4.109.651-7.824 2.661-11.441 2.42-4.354 4.497-8.899 6.899-13.691z"/><path fill="#eb102f" d="M1217.996 693.838c12.072-3.613 18.044.813 18.228 12.807.116 7.585-2.551 14.322-5.664 20.955-3.1 6.606-6.397 13.12-9.826 20.119 4.283-.171 7.873-1.754 11.596-2.639 2.747-.653 3.833.075 3.92 3.126.234 8.186.374 8.187-7.56 10.345l-19.217 5.218c-2.903.805-4.422.154-4.367-3.221.06-3.671.224-7.129 2.01-10.585 5.027-9.724 9.741-19.611 14.473-29.484 1.735-3.621 2.821-7.458 2.559-11.562-.094-1.481.15-3.235-1.706-3.719-1.594-.416-2.886.607-3.906 1.749-1.154 1.291-1.457 2.901-1.601 4.61-.427 5.082-4.227 8.174-9.433 7.891-2.042-.111-2.243-1.347-2.386-3.019-.824-9.66 3.748-17.954 12.881-22.591z"/><path d="M866.965 843.036c2.304-.215 5.323-2.632 5.701.674.389 3.404 2.706 8.621-1.716 10.35-7.541 2.949-15.599 4.618-23.498 6.591-2.971.742-2.592-1.831-2.601-3.556l-.024-29.996-.087-27.994c-.095-3.489 1.055-5.119 4.383-5.917 6.46-1.548 12.862-3.343 19.265-5.12 3.426-.951 4.773-.069 4.705 3.763-.132 7.443.073 7.447-6.973 9.298-9.556 2.511-11.031 4.924-9.302 14.814.261 1.49.619 2.101 2.168 1.545.935-.336 1.936-.481 2.899-.742 8.24-2.232 8.179-2.189 8.024 6.293-.056 3.087-1.31 4.323-4.194 5.097-8.907 2.39-8.876 2.507-8.87 11.056.005 6.518.005 6.52 6.34 4.842l3.78-.998zM441.007 965.67c.381 3.171-1.171 4.326-3.542 4.94l-20.712 5.504c-2.857.82-3.965.209-3.956-2.861l-.018-59.98c-.012-2.624 1.379-3.483 3.462-4.03l20.725-5.501c3.415-.999 4.011.357 4.085 3.344.198 7.958.287 7.956-6.969 9.873-9.835 2.599-10.719 4.054-9.281 14.29.257 1.83.862 2.305 2.507 1.843.64-.18 1.311-.254 1.944-.454 9.455-2.99 8.044-2.45 8.339 6.713.098 3.055-1.533 3.937-4.058 4.616-8.705 2.343-8.688 2.406-8.687 11.154.001 6.39.002 6.394 5.924 4.811.802-.214 1.584-.504 2.386-.718 7.848-2.098 7.848-2.096 7.85 6.456z" fill="#ea0e2e"/><path fill="#eb1937" d="M460.403 917.001l.031-15.967c.059-3.246 8.504-7.653 11.111-5.815 1.632 1.151 1.02 3.041 1.025 4.628l-.052 43.908c-.05 3.894.915 5.281 4.733 3.686.756-.316 1.616-.375 2.41-.612 9.535-2.849 8.376-3.14 8.61 6.804.065 2.782-1.29 3.775-3.675 4.378-6.269 1.585-12.577 3.077-18.725 5.054-4.299 1.382-5.6.313-5.538-4.151l.07-41.913z"/><path fill="#eb1432" d="M996.214 762.249l-.069 41.892c-.044 3.606.991 4.536 4.269 3.113 1.055-.458 2.225-.654 3.344-.962 8.118-2.237 10.069-.203 8.28 8.38-.392 1.882-1.595 2.326-3.066 2.725l-20.644 5.612c-2.862.806-3.94-.073-3.931-3.059l.055-59.392c.007-2.994 8.276-7.588 10.699-5.785 2.324 1.729.602 4.661 1.064 7.476z"/><path fill="#eb1533" d="M319.58 971l-.008 26.424c-.011 3.854-6.981 8.618-10.527 7.253-1.449-.558-1.238-1.825-1.239-2.943l.055-60.323c.058-6.027 5.871-4.446 9.136-5.234 3.8-.917 2.489 2.989 2.517 4.91L319.58 971z"/><path fill="#eb102f" d="M1045.011 778l-.01 25.952c-.016 3.334-7.994 7.735-10.884 6.079-1.313-.753-.951-2.013-.952-3.115l-.04-59.389c-.004-2.039.377-3.822 2.568-4.211 2.875-.511 5.608-2.571 8.593-1.434 1.347.513.701 2.406.706 3.678l.02 32.44z"/><path d="M993.756 220.814l101.17-27.136c5.376-1.44 6.811-.323 6.202 5.107l-3.187 26.213c-.296 2.756-2.191 2.962-4.089 3.468l-36.09 9.521c-5.101 1.231-7.125 3.561-6.884 8.963.423 9.481.198 18.996.079 28.494-.048 3.876 1.079 4.928 5.065 3.775 10.663-3.084 21.476-5.649 32.174-8.618 2.67-.741 3.501-.856 3.008 2.454-1.638 11.004-2.825 22.075-4.388 33.091-.666 4.692-3.948 6.822-8.405 8.003l-88.937 23.841-4.339 1.119c-3.77.876-5.935 2.749-6.383 7.055-1.065 10.236-2.437 20.455-4.158 30.6-.818 4.824 1.372 4.758 4.646 3.884l34.064-9.173c3.194-.858 6.383-1.755 9.614-2.454 3.058-.662 4.366.669 3.928 3.821l-9.489 68.596-5.285 39c-.533 4.219-2.624 6.514-6.659 7.582l-43.759 11.69c-3.821.971-5.848 3.017-6.35 6.638l-4.405 33.099c-.587 4.193.547 5.253 4.825 4.078l62.861-16.927c4.155-1.157 4.743-.132 4.648 3.663-.222 8.828-.101 17.665-.063 26.498.023 5.427.609 5.858 5.77 4.507 7.209-1.887 14.473-3.602 21.593-5.783 3.425-1.049 3.711.226 3.335 2.958l-6.129 44.926-3.806 28.139c-.783 6.055-3.05 8.803-9.038 10.407l-359.152 96.149c-1.974.528-4.114 2.084-5.995-.106-1.673-1.949-.141-3.866.516-5.609l12.826-33.445c1.286-3.411 3.357-5.132 7.036-6.104l134.44-35.86c3.72-.989 5.195-2.599 5.609-6.656 1.224-12.013 3.134-23.955 4.858-36.521l-21.538 5.761c-1.764.474-3.703 1.327-5.07-.465-1.107-1.451-.396-3.104.232-4.722l13.507-35.314c1.216-3.254 3.513-4.666 6.717-5.05 8.51-1.021 12.737-4.333 13.724-14.326 2.889-29.245 7.513-58.32 11.5-87.456l13.714-99.744 6.909-50.87c.543-3.803-1.516-2.804-3.386-2.307l-30.267 8.162c-1.598.434-3.245 1.218-4.687-.163-1.67-1.601-.716-3.466-.086-5.111l13.61-35.283c1.066-2.813 2.918-4.17 5.732-4.882l22.118-5.823c2.414-.569 3.238-1.546 3.459-3.917.369-3.963 1.229-7.878 1.717-11.834.882-7.148 3.8-10.915 10.594-12.745l100.222-26.858zM403.052 806.05l-23.944 6.449c-7.015 1.859-8.844.504-8.793-6.744l.678-79.955c.057-7.134-.592-7.633-7.409-5.826-8.501 2.253-16.913 4.899-25.496 6.765-5.389 1.172-7.869 4.323-9.101 9.228l-21.908 87.263c-1.563 6.35-4.929 10.056-11.299 11.725l-91.403 24.295c-5.784 1.541-7.665.033-7.35-6.062.235-4.533 2.143-8.676 3.417-12.948l41.835-139.628c.179-.596.336-1.198.683-2.44l-49.789 13.31-11.061 2.954c-1.48.424-2.882.975-4.181-.312-1.291-1.279-.901-2.662-.325-4.143l14.153-36.652c.853-2.242 2.299-3.609 4.53-4.195l58.163-15.091c2.999-.739 2.615-2.714 3.094-4.301L298.965 512.1l21.569-71.922c.182-.608.285-1.239.53-2.327-5.575.428-10.474 2.386-15.502 3.638-7.725 1.923-15.365 4.187-23.068 6.203-1.864.488-4.007 1.542-5.694-.128-2.01-1.99-.262-4.125.447-6l12.648-32.984c1.365-3.765 3.716-5.509 7.337-6.471l101.28-27.014c9.126-2.433 18.334-4.582 27.376-7.292 3.827-1.147 4.314.285 4.293 3.414l-.023 28.996c.003 7.15.421 7.455 7.407 5.564 6.234-1.687 12.613-2.969 18.664-5.159 4.711-1.705 5.333.355 5.493 4.099l1.197 23.43 3.239 67.822 5.005 95.212c.202 3.627-.642 5.224-4.445 6.03-7.288 1.545-14.406 3.877-21.634 5.728-3.068.786-4.419 2.49-4.399 5.649l-.01 31.495c-.035 3.892 1.492 4.373 4.961 3.353 8.096-2.379 16.362-4.183 24.441-6.614 3.129-.942 3.711-.07 3.837 2.753l2.017 40.381 4.764 90.713c.58 10.496-2.663 15.376-12.813 18.102l-64.829 17.279zm183.272-342.723l-52.785 14.167c-1.742.466-3.651 1.401-5.174-.102-1.77-1.747-.535-3.728.168-5.559l12.81-33.443c1.343-3.651 3.491-5.495 7.288-6.473l51.859-13.804c2.803-.732 3.783-1.525 3.135-4.682l-15.634-78.147c-.52-2.638-1.201-3.574-4.257-2.725l-50.473 13.51c-1.683.445-3.446 1.68-5.07-.19-1.532-1.764-.465-3.539.154-5.155l13.462-34.795c1.122-2.963 2.909-4.384 6.011-5.154 9.479-2.354 18.83-5.224 28.308-7.583 2.665-.663 3.136-1.713 2.637-4.13l-8.228-40.514c-1.805-8.705-.922-10.209 7.828-12.552l98.389-26.379c5.94-1.593 6.784-.799 7.28 5.43l4.73 55.154c.116 1.288-.643 3.505 1.441 3.684 1.643.141 2.285-1.782 2.751-3.159l11.037-33.008 10.72-32.6c1.385-4.418 3.982-6.909 8.461-8.093l99.372-26.464c2.255-.598 5.013-2.627 6.907-.116 1.573 2.086.453 4.843-.528 7.162l-38.372 90.74c-1.028 2.447-2.881 2.97-4.947 3.526l-26.462 7.036c-3.694.929-5.206 3.035-5.174 6.758l-.003 29.996c-.039 3.957 1.513 5.072 5.248 3.875 3.252-1.042 6.61-1.754 10.667-2.805-7.293 17.247-14.94 33.451-20.952 50.239-3.719 10.385-9.638 15.15-20.37 17.495-16.345 3.571-13.393 1.004-13.613 17.326l-.045 21.997c-.04 3.351 1.033 4.596 4.506 3.447 3.762-1.244 7.776-1.787 11.449-3.227 4.176-1.637 5.269.179 5.923 3.821l9.196 49.891 17.617 93.85 7.226 38.63c.763 4.121-.92 6.63-5.043 7.731l-104.309 27.969c-3.724 1.003-5.687.174-5.853-4.024l-1.857-38.908c-.807-10.73-.195-21.562-2.066-32.607-3.455 1.399-3.7 4.492-4.452 6.958l-21.118 70.482c-1.732 5.999-4.895 8.923-11.001 10.509l-98.555 26.385c-.641.173-1.298.296-1.954.404-1.39.228-2.924 1.627-4.142.065-1.136-1.457-.475-3.139.179-4.714l3.921-9.696 83.925-208.095c.244-.604.398-1.244.839-2.643l-13.006 3.307zm693.177-354.8l9.161-2.394-3.033 23.733-8.64 63.159-8.69 63.669-5.279 40.499c-.457 3.862-1.532 6.04-5.825 7.031-11.151 2.573-22.12 5.928-33.22 8.739-4.16 1.053-6.191 2.965-6.059 7.562.274 9.491.07 18.995.088 28.494.01 5.327.918 5.994 6.243 4.57l31.758-8.542c.039 7.397-1.769 14.296-2.443 21.29-.525 5.444-1.563 10.838-2.371 16.255-.641 4.298.28 5.182 4.524 4.053l52.304-14.004 42.206-11.416c7.029-1.883 8.508-.229 7.46 7.129l-8.726 63.653-6.113 44.923c-.664 4.572-3.791 6.955-8.313 8.159l-130.294 34.904-72.139 19.258c-7.46 1.988-8.941.946-7.989-6.615l7.314-54.335 8.599-63.207 4.954-36.546c.108-.805.014-1.637.014-2.633-2.844-.563-5.254.728-7.687 1.358l-41.363 11.043c-2.087.565-4.372 1.748-6.133.058-2.159-2.072-.172-4.418.593-6.443l12.485-32.496c1.367-3.76 3.647-5.496 7.353-6.446l36.967-9.791c3.153-.784 4.361-2.203 4.761-5.262l12.213-91.895 13.402-98.267c.039-.285-.147-.601-.357-1.385l-33.975 9.053c-4.171 1.115-8.298 2.419-12.508 3.356-3.936.876-5.387-.791-3.943-4.626l14.067-36.689c1.114-2.961 3.384-3.791 6.037-4.494l101.771-27.004c6.458-1.712 6.477-1.675 6.484 5.234l-.048 27.995c-.083 4.478 1.568 5.578 5.765 4.322 6.027-1.805 12.165-3.243 18.623-5.009z" fill="#fffefe"/><path d="M804.859 534.233l-16.851-89.665-3.889-20.596c-.439-2.406-1.275-4.97 2.687-5.499 2.135-.285 2.292-2.703 2.976-4.309l30.647-72.265 8.869 10.223 14.75 16.277c1.37 1.434 1.534 2.643 1.294 4.407l-14.866 109.832-8.41 62.848c-.485 3.811-1.38 6.469-5.528 7.65-2.45.698-4.548 2.631-7.346 4.34l-4.334-23.243zm269.404-113.934l1.991-13.776c1.653-.72 2.394.753 3.371 1.447 10.845 7.702 21.513 15.705 33.492 21.605 2.63 1.295 2.177 2.92 1.925 4.821l-6.567 48.949-6.312 46.462c-.343 2.621-.761 5.528.002 7.94 1.745 5.511-.807 7.018-5.558 7.95-5.686 1.115-11.243 2.886-17.632 4.578l2.539-19.298c1.354-8.868 1.439-8.836-7.286-6.474l-22.148 5.869c-1.551.396-3.735 2.12-4.677-.04-.886-2.032-.461-4.261 2.114-5.891 8.07-5.108 12.413-12.687 13.66-22.135l4.409-32.119 6.677-49.887z" fill="#fffdfd"/><path d="M543.592 538.662l-20.939 52.033-1.083-.083-4.89-94.72 27.423 18.796c7.136 4.752 7.222 4.628 4.095 12.516l-4.605 11.459zM258.653 435.606c-1.697 4.189-3.618 7.933-4.64 11.909-1.735 6.752-5.715 10.356-12.608 11.332-3.748.531-7.357 1.979-11.071 2.833-3.566.82-5.352-.904-4.071-4.326l14.684-37.971c.745-1.921 2.351-2.768 4.139-3.249l16.786-4.405c1.536-.43 2.831-.818 4.125.452 1.572 1.545.633 3.043.037 4.573l-7.381 18.854zm389.362 268.438l9.046-2.298c3.644-.813 5.334.705 4.065 4.022l-15.089 38.289c-.734 1.846-2.283 2.653-4.18 3.139l-16.289 4.388c-4.075 1.032-5.818-.754-4.311-4.782l14.284-37.018c.803-2.081 2.445-3.068 4.418-3.637l8.056-2.103z" fill="#fefbfb"/><path fill="#fff" d="M858.077 256.106c-.355.76-.918 1.156-.908-.363.301-.11.481.017.908.363z"/><path d="M904.424 802.457l-.046-7.903c-.319-3.292 1.237-4.566 4.244-4.651 3.346-.095 2.494 2.462 2.529 4.256.054 2.816.147 5.688-.327 8.441-.409 2.37-2.512 3.518-4.831 3.594-2.682.088-1.094-2.17-1.568-3.736zm-385.996 98.906l.064-3.448c.322-3.123 1.696-5.854 5.108-5.582 3.348.266 2.365 3.491 2.383 5.636l.014 29.964c-.008 1.643-.128 3.336-.544 4.915-.615 2.333-2.486 3.908-4.743 3.707-2.707-.241-2.262-2.853-2.27-4.773l-.014-30.419zm760.442-192.36l-.029 17.953c-.017 1.467-.218 2.978-.625 4.385-.68 2.352-2.594 3.759-4.848 3.469-2.225-.286-2.218-2.608-2.223-4.437l-.014-32.913c-.001-1.709.364-3.298 1.353-4.706 1.015-1.445 2.377-2.492 4.184-2.149 2.106.4 2.184 2.233 2.191 3.936l.01 14.463zM210.66 999.414l1.739-8.87c1.418 3.244 1.475 6.24 1.937 9.153.22 1.387 1.295 3.003-.706 3.85-.995.421-2.704.899-3.194.425-1.191-1.153-.119-2.754.224-4.558z" fill="#fdeef0"/><path fill="#ea0e2e" d="M371.299 639.998l.032 12.989c.129 4.109-1.89 6.615-5.566 7.874-4.071 1.394-8.223 2.549-12.312 3.893-4.017 1.321-5.371-.387-4.521-4.11 1.623-7.106 3.435-14.168 5.206-21.24l11.097-43.834c.803-3.047 1.198-8.137 4.605-7.855 2.698.223 2.019 5.283 1.989 8.34l-.53 43.943z"/></svg>